    <svg xmlns="http://www.w3.org/2000/svg" xmlns:xlink="http://www.w3.org/1999/xlink" width="500" height="500" viewBox="54.016 127.941 277.313 124.882" preserveAspectRatio="xMinYMid meet" version="1.0"><defs><g/><clipPath id="da657fd2c6"><path d="M 112.4375 187 L 172.4375 187 L 172.4375 252.703125 L 112.4375 252.703125 Z M 112.4375 187 " clip-rule="nonzero"/></clipPath></defs><g fill="#ffd200" fill-opacity="1"><g transform="translate(34.525857, 242.325418)"><g/></g></g><g fill="#ffd200" fill-opacity="1"><g transform="translate(50.904021, 242.325418)"><g><path d="M 50.75 -53.171875 L 50.75 0 L 37.796875 0 L 37.796875 -21.890625 L 17.65625 -21.890625 L 17.65625 0 L 4.703125 0 L 4.703125 -53.171875 L 17.65625 -53.171875 L 17.65625 -32.34375 L 37.796875 -32.34375 L 37.796875 -53.171875 Z M 50.75 -53.171875 "/></g></g></g><g fill="#ffd200" fill-opacity="1"><g transform="translate(106.585282, 242.325418)"><g/></g></g><g fill="#ffd200" fill-opacity="1"><g transform="translate(122.947107, 242.325418)"><g/></g></g><g fill="#ffd200" fill-opacity="1"><g transform="translate(139.308933, 242.325418)"><g/></g></g><g fill="#ffd200" fill-opacity="1"><g transform="translate(155.67076, 242.325418)"><g/></g></g><g fill="#ffd200" fill-opacity="1"><g transform="translate(172.052945, 242.325418)"><g><path d="M 2.5 -26.65625 C 2.5 -31.914062 3.632812 -36.601562 5.90625 -40.71875 C 8.175781 -44.832031 11.34375 -48.035156 15.40625 -50.328125 C 19.476562 -52.628906 24.085938 -53.78125 29.234375 -53.78125 C 35.546875 -53.78125 40.945312 -52.113281 45.4375 -48.78125 C 49.9375 -45.445312 52.945312 -40.898438 54.46875 -35.140625 L 40.21875 -35.140625 C 39.15625 -37.367188 37.648438 -39.0625 35.703125 -40.21875 C 33.765625 -41.382812 31.5625 -41.96875 29.09375 -41.96875 C 25.101562 -41.96875 21.867188 -40.578125 19.390625 -37.796875 C 16.921875 -35.023438 15.6875 -31.3125 15.6875 -26.65625 C 15.6875 -22.007812 16.921875 -18.296875 19.390625 -15.515625 C 21.867188 -12.742188 25.101562 -11.359375 29.09375 -11.359375 C 31.5625 -11.359375 33.765625 -11.9375 35.703125 -13.09375 C 37.648438 -14.257812 39.15625 -15.957031 40.21875 -18.1875 L 54.46875 -18.1875 C 52.945312 -12.425781 49.9375 -7.890625 45.4375 -4.578125 C 40.945312 -1.273438 35.546875 0.375 29.234375 0.375 C 24.085938 0.375 19.476562 -0.769531 15.40625 -3.0625 C 11.34375 -5.363281 8.175781 -8.554688 5.90625 -12.640625 C 3.632812 -16.734375 2.5 -21.40625 2.5 -26.65625 Z M 2.5 -26.65625 "/></g></g></g><g fill="#ffd200" fill-opacity="1"><g transform="translate(230.076783, 242.325418)"><g><path d="M 35.53125 0 L 17.65625 -23.484375 L 17.65625 0 L 4.703125 0 L 4.703125 -53.171875 L 17.65625 -53.171875 L 17.65625 -29.84375 L 35.375 -53.171875 L 50.59375 -53.171875 L 30 -27.125 L 51.359375 0 Z M 35.53125 0 "/></g></g></g><g fill="#ffd200" fill-opacity="1"><g transform="translate(283.176923, 242.325418)"><g><path d="M 23.9375 0.53125 C 20.050781 0.53125 16.566406 -0.0976562 13.484375 -1.359375 C 10.398438 -2.617188 7.9375 -4.488281 6.09375 -6.96875 C 4.25 -9.445312 3.28125 -12.425781 3.1875 -15.90625 L 16.96875 -15.90625 C 17.164062 -13.9375 17.84375 -12.429688 19 -11.390625 C 20.164062 -10.359375 21.6875 -9.84375 23.5625 -9.84375 C 25.476562 -9.84375 26.988281 -10.285156 28.09375 -11.171875 C 29.207031 -12.054688 29.765625 -13.28125 29.765625 -14.84375 C 29.765625 -16.15625 29.320312 -17.238281 28.4375 -18.09375 C 27.5625 -18.957031 26.476562 -19.664062 25.1875 -20.21875 C 23.894531 -20.78125 22.0625 -21.414062 19.6875 -22.125 C 16.257812 -23.175781 13.457031 -24.234375 11.28125 -25.296875 C 9.113281 -26.359375 7.242188 -27.925781 5.671875 -30 C 4.109375 -32.070312 3.328125 -34.773438 3.328125 -38.109375 C 3.328125 -43.054688 5.117188 -46.929688 8.703125 -49.734375 C 12.296875 -52.535156 16.96875 -53.9375 22.71875 -53.9375 C 28.582031 -53.9375 33.304688 -52.535156 36.890625 -49.734375 C 40.472656 -46.929688 42.390625 -43.03125 42.640625 -38.03125 L 28.640625 -38.03125 C 28.535156 -39.75 27.898438 -41.097656 26.734375 -42.078125 C 25.578125 -43.066406 24.085938 -43.5625 22.265625 -43.5625 C 20.703125 -43.5625 19.441406 -43.144531 18.484375 -42.3125 C 17.523438 -41.476562 17.046875 -40.273438 17.046875 -38.703125 C 17.046875 -36.984375 17.851562 -35.644531 19.46875 -34.6875 C 21.082031 -33.726562 23.609375 -32.695312 27.046875 -31.59375 C 30.472656 -30.425781 33.257812 -29.3125 35.40625 -28.25 C 37.550781 -27.1875 39.40625 -25.644531 40.96875 -23.625 C 42.539062 -21.613281 43.328125 -19.015625 43.328125 -15.828125 C 43.328125 -12.796875 42.554688 -10.039062 41.015625 -7.5625 C 39.472656 -5.09375 37.238281 -3.125 34.3125 -1.65625 C 31.382812 -0.195312 27.925781 0.53125 23.9375 0.53125 Z M 23.9375 0.53125 "/></g></g></g><g clip-path="url(#da657fd2c6)"><path fill="#ffd200" d="M 147.0625 190.386719 C 145.203125 186.703125 139.941406 186.703125 138.078125 190.386719 L 112.445312 241.097656 L 131.179688 241.097656 C 135.226562 241.097656 138.691406 238.1875 139.367188 234.195312 C 139.890625 231.101562 140.507812 227.289062 141.058594 223.425781 C 137.28125 218.070312 137.796875 210.613281 142.59375 205.832031 C 146.273438 209.519531 147.414062 214.78125 146.015625 219.445312 C 146.464844 219.75 146.871094 220.09375 147.207031 220.492188 C 147.839844 221.226562 148.277344 222.097656 148.488281 223.019531 C 148.835938 224.5 148.609375 226.105469 147.757812 227.503906 L 147.746094 227.511719 C 147.746094 227.511719 147.28125 225.089844 145.636719 223.707031 C 145.273438 223.40625 144.847656 223.160156 144.367188 222.992188 C 144.054688 223.46875 143.714844 223.929688 143.339844 224.371094 L 144.121094 241.097656 L 144.644531 252.386719 L 150.726562 241.097656 L 172.683594 241.097656 Z M 139.496094 223.710938 C 137.835938 225.074219 137.371094 227.496094 137.371094 227.496094 L 137.363281 227.488281 C 136.515625 226.085938 136.292969 224.480469 136.644531 223 C 136.859375 222.078125 137.300781 221.210938 137.9375 220.476562 C 138.324219 221.613281 138.84375 222.695312 139.496094 223.710938 Z M 139.496094 223.710938 " fill-opacity="1" fill-rule="nonzero"/></g><g fill="#ffd200" fill-opacity="1"><g transform="translate(49.238224, 183.068911)"><g><path d="M 33.640625 0 L 21.0625 -21.59375 L 12.71875 -21.59375 L 12.71875 0 L 5.828125 0 L 5.828125 -52.796875 L 22.875 -52.796875 C 26.863281 -52.796875 30.234375 -52.113281 32.984375 -50.75 C 35.742188 -49.382812 37.800781 -47.539062 39.15625 -45.21875 C 40.519531 -42.894531 41.203125 -40.242188 41.203125 -37.265625 C 41.203125 -33.628906 40.15625 -30.421875 38.0625 -27.640625 C 35.96875 -24.867188 32.828125 -23.03125 28.640625 -22.125 L 41.890625 0 Z M 12.71875 -27.125 L 22.875 -27.125 C 26.613281 -27.125 29.414062 -28.039062 31.28125 -29.875 C 33.15625 -31.71875 34.09375 -34.179688 34.09375 -37.265625 C 34.09375 -40.398438 33.171875 -42.820312 31.328125 -44.53125 C 29.484375 -46.25 26.664062 -47.109375 22.875 -47.109375 L 12.71875 -47.109375 Z M 12.71875 -27.125 "/></g></g></g><g fill="#ffd200" fill-opacity="1"><g transform="translate(94.15736, 183.068911)"><g><path d="M 29.765625 0.53125 C 24.867188 0.53125 20.398438 -0.613281 16.359375 -2.90625 C 12.316406 -5.207031 9.117188 -8.414062 6.765625 -12.53125 C 4.421875 -16.644531 3.25 -21.28125 3.25 -26.4375 C 3.25 -31.582031 4.421875 -36.210938 6.765625 -40.328125 C 9.117188 -44.453125 12.316406 -47.660156 16.359375 -49.953125 C 20.398438 -52.253906 24.867188 -53.40625 29.765625 -53.40625 C 34.710938 -53.40625 39.207031 -52.253906 43.25 -49.953125 C 47.289062 -47.660156 50.472656 -44.46875 52.796875 -40.375 C 55.117188 -36.28125 56.28125 -31.632812 56.28125 -26.4375 C 56.28125 -21.238281 55.117188 -16.59375 52.796875 -12.5 C 50.472656 -8.40625 47.289062 -5.207031 43.25 -2.90625 C 39.207031 -0.613281 34.710938 0.53125 29.765625 0.53125 Z M 29.765625 -5.453125 C 33.453125 -5.453125 36.769531 -6.3125 39.71875 -8.03125 C 42.675781 -9.75 45 -12.195312 46.6875 -15.375 C 48.382812 -18.5625 49.234375 -22.25 49.234375 -26.4375 C 49.234375 -30.675781 48.382812 -34.375 46.6875 -37.53125 C 45 -40.6875 42.691406 -43.125 39.765625 -44.84375 C 36.835938 -46.5625 33.503906 -47.421875 29.765625 -47.421875 C 26.035156 -47.421875 22.703125 -46.5625 19.765625 -44.84375 C 16.835938 -43.125 14.523438 -40.6875 12.828125 -37.53125 C 11.140625 -34.375 10.296875 -30.675781 10.296875 -26.4375 C 10.296875 -22.25 11.140625 -18.5625 12.828125 -15.375 C 14.523438 -12.195312 16.847656 -9.75 19.796875 -8.03125 C 22.753906 -6.3125 26.078125 -5.453125 29.765625 -5.453125 Z M 29.765625 -5.453125 "/></g></g></g><g fill="#ffd200" fill-opacity="1"><g transform="translate(152.559837, 183.068911)"><g><path d="M 3.25 -26.4375 C 3.25 -31.582031 4.410156 -36.210938 6.734375 -40.328125 C 9.054688 -44.453125 12.222656 -47.675781 16.234375 -50 C 20.253906 -52.320312 24.71875 -53.484375 29.625 -53.484375 C 35.375 -53.484375 40.394531 -52.09375 44.6875 -49.3125 C 48.976562 -46.53125 52.109375 -42.59375 54.078125 -37.5 L 45.828125 -37.5 C 44.359375 -40.675781 42.25 -43.125 39.5 -44.84375 C 36.75 -46.5625 33.457031 -47.421875 29.625 -47.421875 C 25.9375 -47.421875 22.625 -46.5625 19.6875 -44.84375 C 16.757812 -43.125 14.460938 -40.6875 12.796875 -37.53125 C 11.128906 -34.375 10.296875 -30.675781 10.296875 -26.4375 C 10.296875 -22.25 11.128906 -18.578125 12.796875 -15.421875 C 14.460938 -12.265625 16.757812 -9.828125 19.6875 -8.109375 C 22.625 -6.390625 25.9375 -5.53125 29.625 -5.53125 C 33.457031 -5.53125 36.75 -6.375 39.5 -8.0625 C 42.25 -9.757812 44.359375 -12.195312 45.828125 -15.375 L 54.078125 -15.375 C 52.109375 -10.320312 48.976562 -6.421875 44.6875 -3.671875 C 40.394531 -0.921875 35.375 0.453125 29.625 0.453125 C 24.71875 0.453125 20.253906 -0.691406 16.234375 -2.984375 C 12.222656 -5.285156 9.054688 -8.476562 6.734375 -12.5625 C 4.410156 -16.65625 3.25 -21.28125 3.25 -26.4375 Z M 3.25 -26.4375 "/></g></g></g><g fill="#ffd200" fill-opacity="1"><g transform="translate(209.901813, 183.068911)"><g><path d="M 34.46875 0 L 12.71875 -24.09375 L 12.71875 0 L 5.828125 0 L 5.828125 -52.796875 L 12.71875 -52.796875 L 12.71875 -28.328125 L 34.546875 -52.796875 L 43.25 -52.796875 L 19.3125 -26.359375 L 43.484375 0 Z M 34.46875 0 "/></g></g></g><g fill="#ffd200" fill-opacity="1"><g transform="translate(254.139217, 183.068911)"><g><path d="M 12.71875 -47.1875 L 12.71875 -29.546875 L 31.96875 -29.546875 L 31.96875 -23.859375 L 12.71875 -23.859375 L 12.71875 -5.6875 L 34.234375 -5.6875 L 34.234375 0 L 5.828125 0 L 5.828125 -52.875 L 34.234375 -52.875 L 34.234375 -47.1875 Z M 12.71875 -47.1875 "/></g></g></g><g fill="#ffd200" fill-opacity="1"><g transform="translate(291.862195, 183.068911)"><g><path d="M 38.328125 -52.796875 L 38.328125 -47.1875 L 23.9375 -47.1875 L 23.9375 0 L 17.046875 0 L 17.046875 -47.1875 L 2.578125 -47.1875 L 2.578125 -52.796875 Z M 38.328125 -52.796875 "/></g></g></g></svg>