<svg xmlns="http://www.w3.org/2000/svg" xmlns:xlink="http://www.w3.org/1999/xlink" width="500" zoomAndPan="magnify" viewBox="0 0 375 374.999991" height="500" preserveAspectRatio="xMidYMid meet" version="1.0"><defs><clipPath id="303dec791f"><path d="M 79.351562 72 L 295.351562 72 L 295.351562 305.128906 L 79.351562 305.128906 Z M 79.351562 72 " clip-rule="nonzero"/></clipPath></defs><g clip-path="url(#303dec791f)"><path fill="#ffd200" d="M 203.648438 82.859375 C 196.96875 69.632812 178.082031 69.632812 171.398438 82.855469 L 79.402344 264.851562 L 146.632812 264.851562 C 161.164062 264.851562 173.59375 254.402344 176.019531 240.078125 C 177.898438 228.980469 180.113281 215.289062 182.097656 201.425781 C 168.539062 182.203125 170.382812 155.449219 187.605469 138.28125 C 200.808594 151.523438 204.894531 170.410156 199.886719 187.148438 C 201.496094 188.234375 202.957031 189.464844 204.15625 190.894531 C 206.429688 193.542969 208 196.660156 208.765625 199.964844 C 210.003906 205.285156 209.1875 211.042969 206.132812 216.0625 L 206.097656 216.097656 C 206.097656 216.097656 204.421875 207.40625 198.527344 202.441406 C 197.214844 201.355469 195.695312 200.476562 193.964844 199.878906 C 192.847656 201.585938 191.621094 203.238281 190.273438 204.824219 L 193.082031 264.847656 L 194.96875 305.363281 L 216.792969 264.847656 L 295.597656 264.847656 Z M 176.480469 202.445312 C 170.53125 207.351562 168.867188 216.042969 168.867188 216.042969 L 168.832031 216.003906 C 165.792969 210.976562 164.996094 205.214844 166.25 199.898438 C 167.027344 196.597656 168.609375 193.480469 170.886719 190.847656 C 172.273438 194.917969 174.140625 198.808594 176.480469 202.445312 Z M 176.480469 202.445312 " fill-opacity="1" fill-rule="nonzero"/></g></svg>