<?xml version="1.0" standalone="no"?>
<!DOCTYPE svg PUBLIC "-//W3C//DTD SVG 20010904//EN"
 "http://www.w3.org/TR/2001/REC-SVG-20010904/DTD/svg10.dtd">
<svg version="1.0" xmlns="http://www.w3.org/2000/svg"
 width="1024.000000pt" height="1024.000000pt" viewBox="0 0 1024.000000 1024.000000"
 preserveAspectRatio="xMidYMid meet">
<metadata>
Created by potrace 1.16, written by Peter Selinger 2001-2019
</metadata>
<g transform="translate(0.000000,1024.000000) scale(0.100000,-0.100000)"
fill="#000000" stroke="none">
<path d="M5010 9984 c-41 -27 -50 -45 -50 -97 0 -43 4 -53 36 -85 l37 -37 -6
-178 -6 -179 -68 -66 c-311 -305 -514 -838 -620 -1632 -13 -93 -17 -272 -20
-944 l-5 -830 -28 -40 c-15 -23 -56 -86 -90 -141 -35 -55 -78 -122 -95 -150
-173 -271 -311 -506 -359 -610 -42 -91 -118 -310 -140 -406 -65 -285 -75 -454
-78 -1399 -2 -660 0 -739 14 -772 9 -20 26 -43 37 -50 19 -12 21 -22 21 -134
0 -83 5 -132 14 -156 8 -19 18 -58 22 -87 4 -31 13 -55 21 -58 11 -4 13 -26
11 -101 l-3 -96 30 -15 c17 -8 44 -15 62 -15 25 0 34 -6 46 -30 25 -52 76
-116 108 -135 24 -15 38 -17 62 -10 45 13 94 66 113 121 13 39 19 48 34 43 10
-3 21 -1 25 5 3 5 19 10 35 10 49 0 64 35 56 128 -5 69 -4 79 13 94 13 11 22
36 27 75 3 32 13 67 20 78 10 14 14 56 14 148 0 126 1 130 25 149 30 24 55 68
55 100 1 14 14 -7 33 -52 27 -64 46 -89 143 -187 62 -62 117 -113 123 -113 7
0 11 -46 11 -140 0 -144 7 -176 47 -222 11 -12 14 -30 10 -60 -3 -24 -3 -74 1
-112 l7 -69 40 -14 c22 -8 48 -12 58 -9 11 3 16 2 13 -1 -3 -4 3 -12 14 -20
11 -8 40 -45 64 -83 54 -83 93 -108 139 -89 52 22 97 69 133 141 32 63 54 86
54 56 0 -10 2 -10 8 0 5 7 26 15 48 19 61 9 62 12 56 129 l-5 105 33 30 33 30
-5 154 -5 153 28 13 c32 16 206 201 238 252 12 20 25 55 30 79 7 41 8 42 18
18 6 -14 17 -45 24 -70 9 -29 22 -49 37 -55 21 -9 22 -14 20 -125 -1 -96 2
-125 20 -177 12 -34 22 -78 22 -96 0 -24 7 -39 20 -48 20 -13 20 -18 10 -88
-14 -98 -1 -121 66 -121 37 0 45 -3 40 -15 -4 -11 1 -15 19 -15 19 0 28 -9 40
-37 9 -20 31 -56 51 -80 30 -37 41 -43 73 -43 52 0 111 52 141 124 12 31 25
55 29 54 16 -3 102 26 112 38 8 10 10 40 6 96 -5 63 -3 85 7 97 30 34 56 174
56 304 0 116 1 125 20 130 11 3 25 18 31 34 13 36 17 711 8 1378 -6 426 -10
506 -28 610 -38 223 -87 393 -166 580 -57 132 -103 212 -250 435 -67 102 -170
267 -229 366 l-107 181 1 754 c1 841 -4 958 -56 1259 -91 538 -279 1021 -508
1306 -35 44 -81 91 -100 105 -20 13 -38 30 -40 36 -11 28 -7 384 4 398 6 7 15
26 20 42 6 21 8 23 9 8 1 -11 -7 -31 -16 -44 -9 -14 -11 -21 -4 -16 35 21 54
133 28 166 -31 40 -104 52 -147 23z m106 -655 c95 -59 284 -400 399 -723 83
-236 157 -558 193 -849 9 -67 8 -68 -12 -63 -12 3 -38 9 -58 12 l-38 7 0 56
c0 199 -114 731 -222 1036 -53 151 -175 404 -221 460 -33 40 -94 87 -85 64
139 -329 185 -488 248 -851 37 -214 57 -397 66 -597 7 -143 6 -155 -11 -167
-18 -13 -18 -14 3 -14 22 0 22 -1 22 -197 l0 -198 -348 0 c-311 0 -492 -9
-620 -32 l-34 -6 7 194 c4 107 10 199 13 204 4 6 5 20 4 32 -2 11 10 99 27
195 16 95 32 196 36 223 3 28 19 97 35 155 15 58 31 132 35 165 4 33 18 83 31
112 13 28 32 85 41 125 9 40 27 89 40 108 13 19 23 42 23 51 0 19 106 236 120
244 5 3 26 36 46 73 40 75 170 202 206 202 11 0 36 -9 54 -21z m604 -1656 c3
-2 6 -99 9 -215 l3 -211 -23 6 c-13 3 -41 9 -61 12 l-38 7 0 209 0 210 53 -7
c28 -4 54 -9 57 -11z m-397 -509 l77 -7 0 -46 0 -46 -308 -1 c-208 -1 -359 -7
-467 -18 -249 -27 -229 -28 -233 21 -2 32 1 44 15 51 29 15 120 34 202 42 98
9 615 12 714 4z m-45 -241 l122 -6 0 -51 0 -51 -338 -1 c-255 0 -372 -5 -482
-18 -80 -9 -154 -18 -165 -19 -18 -2 -20 4 -19 45 0 26 2 50 5 52 7 7 159 36
239 45 93 10 476 13 638 4z m55 -250 l67 -6 0 -51 0 -51 -348 -1 c-304 -1
-481 -10 -615 -31 l-38 -6 3 49 3 49 50 13 c117 29 256 40 530 41 154 0 310
-2 348 -6z m-53 -249 l125 -7 0 -1273 c0 -700 -3 -1275 -6 -1279 -8 -7 -68
143 -120 295 -45 133 -145 350 -176 382 -37 38 -58 35 -94 -14 -103 -142 -185
-382 -231 -678 -22 -139 -23 -168 -21 -733 1 -409 4 -592 12 -601 9 -10 -8
-14 -92 -19 -56 -3 -120 -2 -142 3 -22 5 -58 10 -80 10 -22 0 -45 4 -52 8 -8
5 -9 44 -3 147 5 77 9 156 10 175 0 29 3 32 13 20 19 -24 104 -15 112 11 10
29 0 34 -68 34 l-62 0 -3 1737 c-2 1658 -2 1737 15 1742 21 6 136 23 238 35
87 10 457 13 625 5z m406 -44 l45 0 -2 -1487 c-1 -819 -5 -1567 -8 -1663 l-6
-175 -35 -3 c-71 -5 -65 -159 -68 1679 -3 1531 -2 1661 13 1655 9 -3 37 -6 61
-6z m-1372 -1168 c-1 -328 -2 -601 -3 -607 -1 -5 -17 31 -36 80 -77 198 -92
233 -139 314 -26 47 -71 115 -99 153 -44 60 -53 67 -75 61 l-26 -6 34 59 c18
32 50 83 71 113 22 30 39 58 39 63 0 5 16 32 36 61 20 28 42 67 50 85 7 19 27
50 43 70 15 21 43 63 61 95 17 31 35 57 38 57 4 0 6 -269 6 -598z m-343 -59
c78 -84 142 -212 202 -403 54 -174 52 -166 83 -352 30 -183 30 -180 2 -176
-21 3 -24 12 -40 123 -30 204 -55 325 -97 464 -41 136 -74 203 -137 276 l-34
40 21 -41 c14 -30 24 -83 34 -200 18 -195 30 -276 62 -424 l26 -115 4 -670 c5
-677 -2 -1039 -18 -1029 -5 3 -9 343 -9 795 l0 789 -25 0 -25 0 0 -787 c1
-434 5 -805 9 -825 8 -32 6 -38 -11 -44 -10 -3 -111 -4 -224 -2 l-204 3 -1
290 c0 160 -3 369 -5 465 -6 270 12 828 31 960 39 274 124 592 190 715 35 64
116 185 125 185 3 0 22 -17 41 -37z m2306 -80 c108 -207 183 -439 217 -674 22
-149 22 -159 -9 -159 -34 0 -41 21 -55 155 -23 223 -87 469 -161 617 -67 133
-72 113 -30 -102 11 -52 25 -153 31 -225 7 -71 19 -173 27 -225 12 -76 17
-249 22 -881 3 -432 3 -816 0 -855 -4 -46 -7 -56 -8 -29 -1 22 -5 69 -9 105
-4 36 -7 374 -7 753 l0 687 -21 0 -21 0 -7 -772 c-5 -527 -4 -784 4 -808 14
-47 13 -97 -2 -103 -8 -3 0 -11 17 -18 28 -13 22 -14 -82 -19 -61 -3 -114 -8
-117 -11 -4 -3 -4 -14 0 -23 5 -12 19 -16 58 -16 28 0 92 -7 141 -15 118 -19
174 -19 181 0 4 10 20 15 45 15 34 0 39 -3 39 -22 l0 -23 -345 -1 c-331 -1
-345 -1 -345 17 0 15 7 19 33 19 17 0 63 7 100 17 85 20 71 33 -41 40 -106 7
-115 17 -25 28 29 3 63 10 75 15 25 10 32 8 -92 13 l-45 2 -4 45 c-8 76 -6
1588 1 1595 4 4 19 4 34 1 l27 -7 -8 -282 c-9 -301 -9 -336 -6 -892 3 -428 4
-395 -10 -395 -5 0 -7 5 -4 10 7 11 -8 14 -18 4 -10 -10 4 -33 18 -28 7 3 15
-2 18 -10 4 -9 13 -16 21 -16 14 0 15 96 16 800 0 439 3 806 6 815 5 12 -3 15
-46 15 -42 0 -51 3 -46 15 3 8 11 46 17 83 13 80 88 371 119 461 58 173 204
417 234 392 7 -6 35 -55 63 -108z m-1185 -610 c77 -121 140 -286 182 -483 47
-218 55 -314 56 -650 0 -173 5 -358 11 -410 6 -52 13 -164 16 -247 4 -135 3
-153 -11 -153 -14 0 -16 26 -17 223 -1 122 -4 209 -7 192 l-5 -30 -7 25 c-5
15 -9 -18 -10 -85 -1 -60 -5 -130 -8 -155 -4 -25 -5 171 -4 435 2 296 7 481
13 484 6 1 3 8 -6 15 -11 8 -18 41 -25 116 -14 150 -56 380 -85 467 -25 74
-93 218 -100 211 -4 -4 10 -117 36 -289 10 -69 19 -174 20 -235 1 -60 4 -134
8 -164 4 -36 2 -68 -6 -93 -7 -21 -12 -48 -12 -60 0 -12 0 -53 -1 -92 -3 -87
-18 -60 -19 33 -1 39 -5 61 -11 57 -6 -4 -10 12 -10 40 0 42 -2 46 -22 43
l-23 -3 2 -880 c1 -539 -2 -851 -7 -805 -5 41 -14 406 -20 810 -7 404 -15 760
-19 790 -8 57 -4 -518 4 -625 2 -33 -1 -153 -7 -267 -12 -201 -13 -207 -32
-203 -12 2 -47 6 -80 10 -101 10 -91 -49 -91 557 1 558 2 584 42 818 13 80 29
179 35 220 11 81 19 106 70 222 36 79 107 198 119 198 3 0 17 -17 31 -37z
m1432 -335 c3 -50 6 -419 6 -820 l0 -728 -36 0 -37 0 6 148 c4 81 7 450 7 820
l0 672 24 0 c22 0 23 -4 30 -92z m-2234 -722 c0 -437 3 -801 6 -810 5 -13 -1
-16 -25 -16 l-31 0 1 810 1 810 24 0 24 0 0 -794z m2114 108 c-1 -333 -5 -608
-8 -611 -8 -8 -8 963 1 1105 3 61 7 112 7 112 1 0 1 -273 0 -606z m-2226 -86
c-1 -380 -4 -521 -8 -418 -15 320 -10 990 6 990 2 0 3 -258 2 -572z m1534
-740 c2 -79 2 -149 0 -155 -3 -9 -30 -13 -91 -13 l-86 0 35 18 35 17 3 125 c1
69 4 131 7 138 3 7 22 12 49 12 l44 0 4 -142z m-1687 -142 c28 -12 24 -14 -70
-20 -55 -4 -116 -9 -135 -12 l-34 -6 24 -19 c14 -10 41 -19 60 -19 19 0 99 -7
177 -17 108 -13 148 -14 165 -6 44 22 70 26 79 12 23 -37 14 -39 -168 -34 -98
2 -258 1 -356 -3 l-177 -7 0 28 c0 26 1 27 60 27 33 0 68 4 78 9 9 5 26 13 37
18 13 5 -14 9 -77 11 -88 2 -98 5 -98 22 0 10 8 20 18 23 9 2 100 4 202 5 136
1 193 -2 215 -12z m755 -92 c0 -18 10 -18 24 2 10 13 26 14 99 8 l87 -7 0 -44
c0 -33 -3 -42 -12 -36 -7 4 -115 10 -239 13 -205 5 -229 7 -248 24 -49 44 -28
50 182 53 87 2 107 -1 107 -13z m890 5 c0 -17 -66 -79 -84 -79 -9 0 -16 -7
-16 -16 0 -9 -26 -49 -57 -89 l-58 -74 -164 0 c-90 -1 -162 1 -159 4 3 3 68 9
144 14 120 7 140 11 149 27 5 11 34 42 63 69 51 49 52 50 42 88 -10 34 -13 37
-38 31 -43 -11 -15 10 31 22 56 15 147 17 147 3z m-1658 -103 c7 -10 11 -66 6
-66 -2 0 -55 -5 -118 -10 -63 -5 -145 -7 -182 -3 l-68 6 0 42 c0 41 0 41 33
37 17 -3 35 -10 39 -16 5 -7 8 -5 8 6 0 9 6 18 13 21 24 9 262 -6 269 -17z
m2160 8 c77 -6 87 -9 92 -28 11 -42 8 -44 -86 -51 -51 -4 -99 -12 -105 -17 -7
-6 -29 -7 -50 -4 -21 4 -62 10 -90 13 l-53 5 0 39 0 39 48 1 c26 0 56 4 67 9
11 5 36 7 55 5 19 -3 74 -8 122 -11z m-1486 -80 c41 -26 60 -32 90 -29 22 3
78 6 127 9 l87 5 0 -28 c0 -27 -3 -29 -52 -35 -29 -3 -98 -6 -154 -6 l-101 0
-30 43 c-16 23 -35 52 -42 64 -10 20 -9 22 6 16 10 -3 41 -21 69 -39z m-708
-50 c29 -5 33 -8 30 -32 -3 -27 -3 -27 -108 -33 -58 -3 -138 -3 -177 -1 -72 5
-73 5 -73 33 0 27 3 29 38 30 20 0 46 4 57 9 19 8 165 4 233 -6z m2199 0 c70
-6 84 -10 89 -26 3 -11 2 -24 -3 -28 -4 -5 -92 -11 -195 -14 l-188 -4 0 28 c0
27 3 29 48 35 26 3 56 10 67 15 11 6 38 8 60 5 22 -3 77 -8 122 -11z m-1209
-101 c2 -7 -1 -13 -6 -13 -5 0 -13 -7 -16 -15 -4 -11 3 -19 19 -25 14 -5 25
-16 25 -24 0 -7 3 -26 6 -42 l5 -29 -58 -3 c-32 -1 -73 0 -90 3 -32 6 -33 7
-33 59 0 30 3 66 6 82 l5 29 66 -5 c41 -3 68 -10 71 -17z m-1000 -9 c24 -4 32
-10 32 -25 0 -11 -6 -21 -12 -24 -7 -2 -84 -6 -170 -8 l-158 -5 0 30 c0 29 1
30 40 26 22 -2 40 0 40 4 0 3 8 8 18 11 19 5 158 -1 210 -9z m2270 -10 c13 -3
22 -12 22 -23 0 -17 -11 -20 -82 -26 -46 -4 -129 -8 -186 -8 l-102 -2 0 34 c0
29 3 33 23 28 12 -3 38 -2 57 2 34 8 221 5 268 -5z m-1218 -191 l0 -33 -141 0
-140 0 3 28 c3 25 7 27 63 33 33 3 95 5 137 5 l78 -1 0 -32z m1153 -9 c46 -5
57 -10 57 -25 0 -10 -4 -20 -9 -23 -5 -3 -68 -8 -140 -10 -117 -3 -131 -1
-131 14 0 28 23 49 60 53 35 5 55 3 163 -9z m-2234 0 c49 -6 61 -10 59 -23 -3
-17 -78 -27 -224 -30 l-71 -1 5 30 4 30 83 0 c45 0 110 -3 144 -6z m229 -3
c11 -6 12 -24 7 -76 l-8 -68 -111 7 c-61 3 -162 6 -223 6 -94 0 -113 3 -113
15 0 8 6 15 13 16 6 0 23 3 37 6 35 9 73 8 170 -5 122 -17 224 -16 217 2 -11
29 -19 106 -11 106 5 0 15 -4 22 -9z m2256 -18 c2 -10 3 -40 2 -68 l-3 -50
-232 0 c-128 0 -235 4 -238 8 -7 12 9 27 36 32 44 8 96 7 241 -6 80 -7 153
-10 163 -6 15 6 15 9 2 41 -8 20 -15 42 -15 51 0 21 37 19 44 -2z m-1393 -158
c104 -16 159 -38 122 -48 -32 -10 -319 -20 -342 -12 -34 11 -23 45 19 60 48
17 84 17 201 0z m-68 -110 c50 -17 272 -24 330 -11 36 8 37 8 37 -18 l0 -26
-260 0 -260 0 0 25 c0 20 6 25 38 30 20 4 42 8 47 10 18 6 24 5 68 -10z"/>
<path d="M4971 6193 c-83 -42 -118 -169 -66 -245 25 -37 95 -78 133 -78 55 0
130 49 158 102 18 35 18 111 -1 148 -39 75 -149 111 -224 73z"/>
<path d="M4969 5607 c-18 -12 -47 -41 -63 -64 -72 -103 -3 -240 127 -250 45
-4 59 0 99 26 57 36 80 78 80 144 0 124 -145 210 -243 144z"/>
<path d="M4975 5012 c-95 -60 -120 -158 -64 -249 28 -44 72 -67 134 -67 164
-1 226 208 92 308 -38 28 -123 33 -162 8z"/>
<path d="M3942 4231 c-9 -5 -12 -150 -14 -607 -4 -718 2 -974 19 -974 7 0 15
10 18 23 7 27 1 1554 -6 1561 -2 3 -10 2 -17 -3z"/>
<path d="M3845 3733 c-7 -438 -1 -920 11 -932 2 -2 6 -2 8 0 14 14 11 1429 -3
1429 -5 0 -12 -223 -16 -497z"/>
<path d="M6167 4223 c-4 -3 -6 -371 -5 -817 1 -446 3 -793 5 -771 3 22 8 44
13 50 8 10 15 880 11 1293 -1 118 0 216 3 220 3 3 6 11 6 19 0 14 -22 18 -33
6z"/>
</g>
</svg>
