<svg xmlns="http://www.w3.org/2000/svg" xmlns:xlink="http://www.w3.org/1999/xlink" viewBox="0 0 250 34"><path d="M 29.005 33.06 L 16.53 33.06 C 7.415 33.06 0 25.645 0 16.53 C 0 7.415 7.415 0 16.53 0 L 29.005 0 C 30.085 0 30.962 0.877 30.962 1.957 C 30.962 3.037 30.085 3.914 29.005 3.914 L 16.53 3.914 C 9.575 3.914 3.918 9.575 3.918 16.526 C 3.918 23.477 9.579 29.138 16.53 29.138 L 29.005 29.138 C 30.085 29.138 30.962 30.015 30.962 31.095 C 30.962 32.175 30.085 33.052 29.005 33.052 Z" fill="rgb(58,100,232)"></path><path d="M 36.031 25.778 L 16.555 25.778 C 11.457 25.778 7.307 21.628 7.307 16.53 C 7.307 11.432 11.457 7.282 16.555 7.282 L 36.031 7.282 C 37.111 7.282 37.988 8.159 37.988 9.239 C 37.988 10.319 37.111 11.197 36.031 11.197 L 16.555 11.197 C 13.613 11.197 11.221 13.588 11.221 16.53 C 11.221 19.472 13.613 21.863 16.555 21.863 L 36.031 21.863 C 37.111 21.863 37.988 22.741 37.988 23.821 C 37.988 24.901 37.111 25.778 36.031 25.778 Z" fill="rgb(58,100,232)"></path><path d="M 41.799 18.487 L 16.555 18.487 C 15.475 18.487 14.598 17.61 14.598 16.53 C 14.598 15.45 15.475 14.573 16.555 14.573 L 41.799 14.573 C 42.879 14.573 43.756 15.45 43.756 16.53 C 43.756 17.61 42.879 18.487 41.799 18.487 Z" fill="rgb(58,100,232)"></path><path d="M 54.936 17.387 C 54.936 9.595 60.663 3.869 68.773 3.869 C 75.571 3.869 80.698 7.882 82.171 13.807 L 76.804 13.807 C 75.571 10.667 72.629 8.598 68.773 8.598 C 63.605 8.598 60.104 12.297 60.104 17.383 C 60.104 22.468 63.601 26.208 68.773 26.208 C 72.629 26.208 75.571 24.102 76.804 20.962 L 82.171 20.962 C 80.702 26.887 75.571 30.9 68.773 30.9 C 60.663 30.9 54.936 25.174 54.936 17.383 Z" fill="rgb(245,248,252)"></path><path d="M 83.598 20.564 C 83.598 14.602 87.972 10.228 94.174 10.228 C 100.377 10.228 104.75 14.602 104.75 20.564 C 104.75 26.527 100.377 30.9 94.174 30.9 C 87.972 30.9 83.598 26.527 83.598 20.564 Z M 99.938 20.564 C 99.938 17.105 97.633 14.639 94.174 14.639 C 90.715 14.639 88.369 17.105 88.369 20.564 C 88.369 24.023 90.715 26.489 94.174 26.489 C 97.633 26.489 99.938 24.023 99.938 20.564 Z" fill="rgb(245,248,252)"></path><path d="M 106.058 20.366 C 106.058 13.646 111.069 10.228 115.839 10.228 C 118.661 10.228 121.007 11.42 122.398 13.609 L 122.398 2.16 L 127.127 2.16 L 127.127 20.407 C 127.127 26.767 122.832 30.904 116.671 30.904 C 110.51 30.904 106.058 26.61 106.058 20.37 Z M 122.398 20.564 C 122.398 17.105 120.093 14.639 116.634 14.639 C 113.175 14.639 110.829 17.105 110.829 20.564 C 110.829 24.024 113.175 26.49 116.634 26.49 C 120.093 26.49 122.398 24.024 122.398 20.564 Z" fill="rgb(245,248,252)"></path><path d="M 129.233 20.564 C 129.233 14.602 133.606 10.228 139.809 10.228 C 146.011 10.228 150.306 14.602 150.306 20.564 L 150.306 22.236 L 134.206 22.236 C 134.844 25.099 137.028 26.609 139.813 26.609 C 141.919 26.609 143.471 26.014 144.464 24.739 L 149.512 24.739 C 148.039 28.476 144.464 30.9 139.813 30.9 C 133.61 30.9 129.237 26.527 129.237 20.564 Z M 145.295 18.458 C 144.538 15.835 142.395 14.523 139.809 14.523 C 137.223 14.523 135.079 15.876 134.322 18.458 Z" fill="rgb(245,248,252)"></path><path d="M 162.703 4.386 L 181.864 4.386 L 181.864 9.115 L 167.792 9.115 L 167.792 14.92 L 179.56 14.92 L 179.56 19.451 L 167.792 19.451 L 167.792 25.691 L 181.864 25.691 L 181.864 30.383 L 162.703 30.383 L 162.703 4.382 Z" fill="rgb(245,248,252)"></path><path d="M 183.851 20.564 C 183.851 14.602 188.224 10.228 194.427 10.228 C 199.752 10.228 203.65 13.447 204.605 18.098 L 199.835 18.098 C 198.999 15.992 197.013 14.639 194.427 14.639 C 190.967 14.639 188.621 17.105 188.621 20.564 C 188.621 24.023 190.967 26.489 194.427 26.489 C 197.013 26.489 198.999 25.136 199.835 23.03 L 204.605 23.03 C 203.65 27.681 199.756 30.9 194.427 30.9 C 188.224 30.9 183.851 26.527 183.851 20.564 Z" fill="rgb(245,248,252)"></path><path d="M 207.344 2.16 L 212.074 2.16 L 212.074 13.489 C 213.385 11.383 215.413 10.228 217.916 10.228 C 222.447 10.228 226.742 13.17 226.742 20.167 L 226.742 30.383 L 222.013 30.383 L 222.013 20.167 C 222.013 16.431 220.026 14.639 217.043 14.639 C 214.06 14.639 212.074 16.509 212.074 20.167 L 212.074 30.383 L 207.344 30.383 L 207.344 2.156 Z" fill="rgb(245,248,252)"></path><path d="M 228.848 20.564 C 228.848 14.602 233.222 10.228 239.424 10.228 C 245.627 10.228 250 14.602 250 20.564 C 250 26.527 245.627 30.9 239.424 30.9 C 233.222 30.9 228.848 26.527 228.848 20.564 Z M 245.188 20.564 C 245.188 17.105 242.883 14.639 239.424 14.639 C 235.965 14.639 233.619 17.105 233.619 20.564 C 233.619 24.023 235.965 26.489 239.424 26.489 C 242.883 26.489 245.188 24.023 245.188 20.564 Z" fill="rgb(245,248,252)"></path></svg>