<?xml version="1.0" encoding="UTF-8" standalone="no"?><!DOCTYPE svg PUBLIC "-//W3C//DTD SVG 1.1//EN" "http://www.w3.org/Graphics/SVG/1.1/DTD/svg11.dtd"><svg width="100%" height="100%" viewBox="0 0 704 480" version="1.1" xmlns="http://www.w3.org/2000/svg" xmlns:xlink="http://www.w3.org/1999/xlink" xml:space="preserve" xmlns:serif="http://www.serif.com/" style="fill-rule:evenodd;clip-rule:evenodd;stroke-linecap:round;stroke-linejoin:round;stroke-miterlimit:1.5;"><g id="Artboard1"><rect x="0" y="0" width="703.819" height="480" style="fill:none;"/><g><clipPath id="_clip1"><rect x="0" y="0" width="703.819" height="480"/></clipPath><g clip-path="url(#_clip1)"><g><path d="M337.051,453.378c12.707,16.927 24.5,19.009 35.358,5.893c6.912,-1.123 11.115,2.452 11.093,13.346l-16.639,21.493l-34.665,-8.32l4.853,-32.412Z" style="fill:#e9b835;stroke:#261c15;stroke-width:10.67px;"/><path d="M352.972,490.776l-15.921,-37.398" style="fill:none;stroke:#261c15;stroke-width:10.67px;"/><path d="M204.996,484.713l127.37,6.096c1.282,-33.691 5.456,-59.672 14.438,-72.829l-36.575,-3.85l-23.1,15.079c-1.015,29.641 -20.16,37.628 -51.975,30.479c-15.506,-3.374 -22.033,-1.759 -14.437,7.7c15.484,8.513 14.141,14.802 -15.721,17.325Z" style="fill:#e9b835;stroke:#261c15;stroke-width:10.67px;"/><path d="M235.037,480.38c2.351,-8.962 -3.511,-13.155 -10.119,-16.915l20.569,3.448c29.557,3.557 44.315,-8.944 46.865,-34.691l9.631,-6.379c-6.47,25.642 -8.415,53.221 -66.946,42.686c4.156,8.204 6.939,9.688 -0,11.851Z" style="fill:#977212;"/><path d="M303.545,424.896l7.876,-5.451c8.434,1.266 17.634,1.78 26.871,2.84c-1.862,3.986 -3.317,8.536 -4.138,12.523c-9.792,-1.438 -17.537,-4.452 -22.733,-9.912l-7.876,0Z" style="fill:#977212;"/><g><path d="M322.425,151.783c18.77,-41.575 44.385,-81.629 76.843,-120.161c16.375,-21.366 27.925,-22.744 33.653,-0c9.84,40.6 2.725,95.895 -10.267,156.283c51.457,31.237 68.705,77.135 45.631,140.313c-19.188,17.123 -42.224,31.168 -69.016,42.208c-24.702,44.543 -55.912,53.752 -91.261,40.496c-22.553,19.322 -48.554,31.061 -78.712,33.652c-60.864,3.565 -94.279,-37.788 -104.95,-116.356c-24.484,-21.315 -47.387,-43.156 -68.529,-65.585c-13.225,-14.027 -25.759,-28.285 -37.561,-42.787c-16.114,-26.118 -13.357,-40.615 26.808,-31.942c46.026,6.574 89.759,21.174 132.74,38.403c25.74,-49.842 74.772,-73.353 144.621,-74.524Z" style="fill:#e9b835;stroke:#261c15;stroke-width:10.67px;"/></g><g><path d="M372.13,246.522c4.455,-2.861 9.948,-2.262 12.258,1.335c2.309,3.598 0.567,8.841 -3.888,11.702c-4.456,2.86 -9.949,2.262 -12.258,-1.335c-2.31,-3.598 -0.568,-8.841 3.888,-11.702Z" style="fill:#dbdbda;"/></g><path d="M142.457,381.945c39.612,37.906 84.112,42.785 145.017,24.414c14.07,-6.579 28.139,-9.774 42.208,-5.704c9.738,4.152 13.492,5.605 29.314,5.194c-18.796,10.172 -28.389,11.631 -48.706,5.073c-82.404,44.838 -138.565,39.314 -167.833,-28.977Z" style="fill:#977212;"/><path d="M395.234,367.033c0.208,-10.129 6.322,-14.84 13.98,-18.205c21.93,-9.636 51.487,-42.688 61.394,-93.916c5.101,25.18 4.596,47.621 -7.04,71.279c-22.317,17.14 -37.33,27.704 -68.334,40.842Z" style="fill:#977212;"/><path d="M121.265,318.696l4.752,-7.103c-36.816,-32.142 -61.872,-50.543 -98.305,-87.941c32.955,42.289 72.489,74.997 93.553,95.044Z" style="fill:#977212;"/><path d="M128.304,350.529c-1.812,-14.888 -3.615,-27.477 0,-39.652" style="fill:none;stroke:#261c15;stroke-width:10.67px;"/><path d="M14.447,198.171c-3.095,-9.362 12.412,-7.754 20.379,-6.902c49.872,5.331 86.046,18.001 135.479,37.548l-5.993,11.398c-55.439,-39.931 -152.621,-56.008 -149.865,-42.044Z" style="fill:#977212;"/><path d="M360.388,158.519c14.285,-38.24 31.341,-75.842 53.212,-112.332c12.023,-12.751 13.544,-3.862 18.674,24.815c-0.614,-20.385 -3.615,-44.829 -10.679,-50.275c-12.244,-9.443 -95.425,120.87 -91.557,125.598l30.35,12.194Z" style="fill:#977212;"/><path d="M161.602,325.293c-7.552,-10.388 -4.756,-24.071 10.296,-38.574l52.261,-32.881c1.632,8.973 -8.019,18.682 -33.098,29.397l-20.905,39.413l-8.554,2.645Z" style="fill:#977212;"/><path d="M167.885,320.352c15.433,-38.235 38.907,-52.68 76.352,-25.794c5.697,5.732 12.187,11.464 20.636,17.196c-17.696,41.522 -52.695,39.533 -96.988,8.598Z" style="fill:#5fd85d;stroke:#261c15;stroke-width:10.67px;"/><path d="M198.342,284.98c-6.814,19.736 6.749,46.791 21.946,45.018c10.875,2.514 18.325,-4.326 24.197,-14.819c1.787,-7.425 1.218,-14.458 -0,-21.383l-29.637,-14.068l-16.506,5.252Z" style="fill:#3c332a;"/><path d="M167.885,320.352c15.433,-38.235 38.907,-52.68 76.352,-25.794c5.697,5.732 12.187,11.464 20.636,17.196c-17.696,41.522 -52.695,39.533 -96.988,8.598Z" style="fill:none;stroke:#261c15;stroke-width:10.67px;"/><g><path d="M193.636,245.716c12.125,-7.772 24.871,-9.555 28.445,-3.978c3.575,5.576 -3.366,16.414 -15.491,24.186c-12.124,7.772 -24.87,9.555 -28.445,3.978c-3.575,-5.576 3.367,-16.414 15.491,-24.186Z" style="fill:#8f3444;stroke:#261c15;stroke-width:10.67px;"/></g><g><path d="M332.109,191.272c14.227,-2.238 26.613,1.257 27.642,7.801c1.029,6.544 -9.685,13.673 -23.912,15.911c-14.227,2.238 -26.613,-1.258 -27.643,-7.802c-1.029,-6.543 9.686,-13.673 23.913,-15.91Z" style="fill:#8f3444;stroke:#261c15;stroke-width:10.67px;"/></g><path d="M332.109,241.134l3.73,33.532c8.653,-30.192 31.543,-44.769 62.198,-50.83" style="fill:none;stroke:#261c15;stroke-width:10.67px;"/><path d="M332.68,377.097c-8.322,-18.463 -7.653,-32.169 5.653,-40.8l36.13,-28.019l-14.992,68.819l-11.306,8.11l-15.485,-8.11Z" style="fill:#d26291;stroke:#443a2d;stroke-width:2.81px;"/><path d="M338.333,336.297l-21.383,-3.687l-21.137,30.231l35.147,12.289c-8.605,-21.795 -3.689,-32.772 7.373,-38.833Z" style="fill:#70204f;stroke:#443a2d;stroke-width:2.81px;"/><path d="M332.68,373.164c3.346,-12.209 7.633,-7.464 12.289,3.933l0,4.669l-12.289,-4.669l0,-3.933Z" style="fill:#fdfdfd;stroke:#443a2d;stroke-width:2.81px;"/><path d="M344.969,357.926c-6.248,-8.139 -5.958,-12.097 0,-16.714" style="fill:none;stroke:#443a2d;stroke-width:2.81px;"/><path d="M339.071,333.347l0,5.653c8.084,13.369 12.562,10.31 14.747,-3.195l0,-4.915l-14.747,2.457Z" style="fill:#fdfdfd;stroke:#443a2d;stroke-width:2.81px;"/><path d="M303.432,355.714l10.077,-10.323l2.458,2.949c6.947,12.764 5.589,17.222 -7.127,10.323l-5.408,-2.949Z" style="fill:#fdfdfd;stroke:#443a2d;stroke-width:2.81px;"/><path d="M364.878,362.104l2.949,-11.552l-2.949,-2.212c-11.348,-1.654 -14.953,0.915 -4.67,11.06l4.67,2.704Z" style="fill:#fdfdfd;stroke:#443a2d;stroke-width:2.81px;"/><g><path d="M336.638,273.602c5.375,-31.346 20.63,-52.398 43.037,-66" style="fill:none;stroke:#261c15;stroke-width:10.67px;"/></g><path d="M278.282,364.083c25.761,-2.344 38.197,-14.156 36.991,-35.66c31.576,18.352 50.046,-2.617 63.87,-37.524c-0.532,20.287 -4.08,42.429 -13.839,68.394c-0.468,6.379 -2.192,12.339 -6.919,17.298c-4.702,6.014 -9.403,10.607 -14.105,6.653c-13.633,-9.131 -28.503,-14.553 -44.975,-15.169l-21.023,-3.992Z" style="fill:none;stroke:#261c15;stroke-width:10.67px;"/><path d="M269.5,374.462l5.854,-21.024l41.782,-23.152" style="fill:none;"/><path d="M182.768,216.908l-14.491,26.141" style="fill:none;stroke:#261c15;stroke-width:10.67px;"/><g><path d="M357.553,159.391c-11.292,-4.961 -23.288,-7.887 -34.579,-7.842" style="fill:none;stroke:#261c15;stroke-width:10.67px;"/></g><path d="M267.903,373.664l7.983,-19.427" style="fill:none;"/><path d="M283.843,283.702l5.062,31.732l9.539,12.849c-4.28,4.093 -9.672,2.396 -16.548,-7.009c-2.298,-12.818 -0.947,-25.272 1.947,-37.572Z" style="fill:#977212;"/><path d="M288.905,317.77l31.732,-15.768l-16.937,-28.228c-7.657,-1.006 -14.471,1.784 -20.052,10.123c2.799,14.436 4.535,27.224 5.257,33.873Z" style="fill:#dbba6b;"/><path d="M320.637,302.002l5.256,3.504c1.487,-1.627 1.239,-4.409 -1.947,-9.15c-14.243,-18.532 -19.825,-24.232 -20.051,-21.998l16.742,27.644Z" style="fill:#dbdbda;"/><g><path d="M316.337,329.487c-13.579,-2.102 -21.638,-4.994 -25.282,-8.516c10.632,-5.309 20.948,-10.303 30.872,-14.903c-1.242,9.049 -2.928,17.21 -5.59,23.419Z" style="fill:#d499bf;stroke:#261c15;stroke-width:10.67px;"/></g><path d="M356.256,291.431c6.964,1.272 15.124,-0.65 24.217,-5.056c12.564,-7.757 23.718,-11.847 32.733,-10.379" style="fill:none;stroke:#261c15;stroke-width:10.67px;"/><g><ellipse cx="211.424" cy="297.594" rx="7.831" ry="7.55" style="fill:#e3e2e1;"/></g><g><ellipse cx="232.54" cy="313.642" rx="2.686" ry="2.59" style="fill:#e3e2e1;"/></g><g><ellipse cx="235.931" cy="305.375" rx="1.922" ry="1.853" style="fill:#e3e2e1;"/></g><path d="M196.434,215.566l-7.398,-9.15" style="fill:none;"/></g><g><g id="Text"><g transform="matrix(1,0,0,0.999996,5.68434e-14,0.00107839)"><g transform="matrix(72.0003,0,0,72.0003,694.755,303.645)"></g><text x="530.234px" y="303.645px" style="font-family:'Montserrat-SemiBold', 'Montserrat';font-weight:600;font-size:72px;fill:#000006;stroke:#000006;stroke-width:2.71px;stroke-linecap:butt;stroke-miterlimit:1.41421;">K<tspan x="581.066px " y="303.645px ">o</tspan>ol</text></g><g transform="matrix(1,0,0,0.999996,0,0.00135996)"><g transform="matrix(72.0003,0,0,72.0003,688.867,382.927)"></g><text x="563.082px" y="382.927px" style="font-family:'Montserrat-SemiBold', 'Montserrat';font-weight:600;font-size:72px;fill:#000006;stroke:#000006;stroke-width:2.71px;stroke-linecap:butt;stroke-miterlimit:1.41421;">K<tspan x="614.634px " y="382.927px ">a</tspan>t</text></g><g transform="matrix(1,0,0,0.999996,0,0.00160823)"><g transform="matrix(72.0003,0,0,72.0003,690.232,452.833)"></g><text x="401.799px" y="452.833px" style="font-family:'Montserrat-SemiBold', 'Montserrat';font-weight:600;font-size:72px;fill:#000006;stroke:#000006;stroke-width:2.71px;stroke-linecap:butt;stroke-miterlimit:1.41421;">Scien<tspan x="604.192px 645.448px " y="452.833px 452.833px ">ce</tspan></text></g></g></g></g></g></g></svg>