<svg width="214" height="38" xmlns="http://www.w3.org/2000/svg"><g fill="#FFF" fill-rule="evenodd"><path d="M13.999 20.716a24.648 24.648 0 0 0 5.031-3.498c.053-.048.109-.101.161-.15a24.76 24.76 0 0 1-1.906-3.069l-.028-.052-.149.146a21.09 21.09 0 0 1-6.25 4.111c-.427.181-.858.346-1.291.493-1.597.544-3.355.948-4.893.948h-.801c-1.104 0-2.198-.261-2.628-.638l-.015-.013-.05-.049c-.007-.008-.016-.014-.022-.022-.037-.04-.058-.07-.087-.109-.034-.045-.071-.116-.071-.116v3.475c0 .494 1.425 1.091 2.873 1.091h.801c1.277 0 2.753-.258 4.137-.589.125.091.229.178.243.187.376.292.742.614 1.097.96h-.002c1.297 1.27 2.422 2.872 3.221 4.533.793 1.648 1.368 3.494 1.368 4.971v.802c0 1.123-.273 2.168-.661 2.627l-.002.003a.895.895 0 0 1-.162.15l-.029.021a1.242 1.242 0 0 1-.115.071h3.495c.26 0 .492-.354.581-.482.314-.456.509-1.461.509-2.39v-.802c0-1.017-.248-2.247-.544-3.37-.116-.445-.26-.907-.429-1.376.217-.419.588-1.071.823-1.438a20.799 20.799 0 0 0-1.908-3.505c-.219.279-.439.572-.645.863l-.168.247c-.053-.084-.106-.168-.161-.252a19.878 19.878 0 0 0-1.422-1.892l-.002-.004-.122-.142-.004-.005a19.28 19.28 0 0 0-1.045-1.114l.262-.12c.312-.144.642-.309 1.01-.502M3.872 12.655c-1.046 0-2.08.22-2.573.557.067.096.282.263.45.355.088.049.229.142.609.252.44.128.977.198 1.514.198h.802c1.007 0 2.304-.307 3.666-.856a14.179 14.179 0 0 0-3.665-.506h-.803"/><path d="M34.128 14.736h-.802c-1.277 0-2.753.257-4.136.588-.126-.09-.23-.177-.244-.187a12.493 12.493 0 0 1-1.096-.959h.001c-1.297-1.27-2.422-2.872-3.221-4.533-.793-1.648-1.367-3.493-1.367-4.97v-.803c0-1.124.272-2.168.66-2.627l.003-.003a.794.794 0 0 1 .19-.171c.045-.033.115-.071.115-.071h-3.494c-.26 0-.493.353-.581.482-.315.456-.51 1.46-.51 2.39v.803c0 1.017.249 2.246.543 3.37.116.444.261.906.43 1.375a23.333 23.333 0 0 1-.823 1.438 20.87 20.87 0 0 0 1.908 3.505c.219-.279.44-.573.645-.864l.168-.246-.001-.002c.054.085.106.169.162.253.44.665.916 1.297 1.421 1.893l.004.005.121.142c.001.001.003.002.003.004a17.89 17.89 0 0 0 1.047 1.114l-.262.119a24.78 24.78 0 0 0-4.259 2.542c-.595.442-1.196.932-1.782 1.459-.051.046-.11.104-.161.151.705.969 1.346 2 1.906 3.068l.027.052c.049-.047.101-.1.15-.146a21.004 21.004 0 0 1 2.57-2.085 20.996 20.996 0 0 1 3.678-2.026c.428-.182.859-.346 1.292-.493 1.597-.544 3.355-.949 4.893-.949h.802c1.104 0 2.198.262 2.627.639l.015.013a1.179 1.179 0 0 1 .072.071c.036.04.058.07.087.109.033.046.071.116.071.116v-3.475c0-.494-1.425-1.091-2.872-1.091M12.656 34.128c0 1.046.22 2.08.556 2.573.097-.067.264-.282.355-.45.05-.088.143-.229.252-.609.128-.44.199-.977.199-1.514v-.803c0-1.005-.308-2.303-.857-3.665a14.214 14.214 0 0 0-.505 3.665v.803"/><path d="M25.345 3.872c0-1.046-.221-2.08-.557-2.573-.096.067-.264.282-.355.45-.049.088-.143.229-.252.609-.128.44-.199.977-.199 1.514v.803c0 1.005.308 2.303.857 3.665.335-1.231.506-2.505.506-3.665v-.803M36.518 20.155c-.456-.316-1.46-.51-2.39-.51h-.802c-1.017 0-2.247.249-3.37.544-.445.115-.907.26-1.376.43a24.554 24.554 0 0 1-1.437-.823h-.001a20.79 20.79 0 0 0-3.504 1.908c.276.216.575.441.863.644l.246.168c-.084.054-.168.106-.252.161-.664.44-1.297.916-1.892 1.422l-.004.003-.143.121-.004.004c-.315.272-.62.553-.912.843l-.203.203a20.855 20.855 0 0 0-.621-1.272 24.82 24.82 0 0 0-2.039-3.248 24.795 24.795 0 0 0-1.459-1.782l-.15-.163a24.656 24.656 0 0 1-3.069 1.908l-.052.027.146.15a20.853 20.853 0 0 1 2.085 2.57 20.868 20.868 0 0 1 2.026 3.679c.182.427.346.858.493 1.29.544 1.597.949 3.356.949 4.893v.803c0 1.104-.262 2.197-.639 2.627-.005.004-.009.01-.012.014l-.05.051-.022.022c-.04.037-.07.059-.109.087-.045.033-.115.071-.115.071h3.474c.494 0 1.091-1.425 1.091-2.872v-.803c0-1.276-.258-2.752-.589-4.135.091-.126.178-.231.187-.244.292-.377.614-.743.96-1.097v.001c1.27-1.297 2.872-2.422 4.533-3.221 1.648-.793 3.494-1.367 4.971-1.367h.802c1.123 0 2.168.272 2.627.66l.004.003c.061.052.11.106.149.161l.021.029c.033.046.071.116.071.116v-3.495c0-.261-.354-.493-.482-.581"/><path d="M23.907 17.107a20.928 20.928 0 0 1-2.085-2.57 20.933 20.933 0 0 1-2.026-3.679 18.444 18.444 0 0 1-.493-1.29c-.544-1.598-.949-3.356-.949-4.893v-.803c0-1.104.262-2.197.639-2.627a.805.805 0 0 1 .063-.065l.021-.022A1.126 1.126 0 0 1 19.302 1h-3.474c-.495 0-1.091 1.425-1.091 2.872v.803c0 1.276.256 2.752.588 4.135-.091.126-.178.231-.188.244a12.36 12.36 0 0 1-.959 1.097v-.001c-1.27 1.297-2.872 2.422-4.532 3.221-1.649.793-3.494 1.367-4.972 1.367h-.802c-1.123 0-2.167-.272-2.627-.661l-.004-.002a.876.876 0 0 1-.148-.161l-.022-.029A1.116 1.116 0 0 1 1 13.769v3.495c0 .261.354.493.482.581.456.315 1.46.51 2.39.51h.802c1.018 0 2.247-.249 3.37-.544.444-.115.907-.261 1.376-.43.415.218 1.069.589 1.437.823h.002a20.868 20.868 0 0 0 3.504-1.908c-.278-.218-.573-.44-.864-.644l-.246-.168-.002.001c.085-.055.17-.107.254-.163a19.8 19.8 0 0 0 1.897-1.424l.142-.121a17.428 17.428 0 0 0 .916-.847l.203-.203a20.704 20.704 0 0 0 .621 1.272 24.826 24.826 0 0 0 2.04 3.248c.441.596.932 1.196 1.459 1.782l.149.163a24.81 24.81 0 0 1 3.069-1.909c.018-.008.035-.018.053-.027l-.147-.149M34.128 25.345c1.046 0 2.08-.221 2.573-.558-.067-.096-.282-.263-.45-.355-.088-.048-.229-.142-.609-.252a5.628 5.628 0 0 0-1.514-.198h-.802c-1.006 0-2.305.307-3.666.857 1.231.335 2.505.506 3.666.506h.802M46 11.792h3.418l3.786 6.092 3.786-6.092h3.416v14.405h-3.148v-9.405l-4.054 6.153h-.083l-4.013-6.091v9.343H46V11.792M64.975 11.792H75.84v2.819h-7.716v2.922h6.791v2.82h-6.791v3.025h7.82v2.819H64.975V11.792M79.954 11.792h6.586c1.83 0 3.25.514 4.198 1.46.802.803 1.234 1.936 1.234 3.292v.043c0 2.325-1.254 3.786-3.087 4.466l3.519 5.144H88.7l-3.087-4.61h-2.489v4.61h-3.17V11.792Zm6.379 6.996c1.544 0 2.428-.823 2.428-2.038v-.04c0-1.359-.945-2.058-2.489-2.058h-3.148v4.136h3.209ZM94.303 19.036v-.042c0-4.095 3.086-7.45 7.512-7.45 2.716 0 4.342.906 5.679 2.223l-2.017 2.326c-1.111-1.008-2.243-1.626-3.683-1.626-2.429 0-4.177 2.016-4.177 4.487v.04c0 2.469 1.708 4.529 4.177 4.529 1.646 0 2.654-.658 3.786-1.689l2.017 2.038c-1.481 1.584-3.129 2.572-5.907 2.572-4.238 0-7.387-3.273-7.387-7.408M114.541 20.517l-5.536-8.725h3.705l3.437 5.782 3.498-5.782h3.601l-5.535 8.664v5.741h-3.17v-5.68M126.076 11.792h3.169v5.7h5.846v-5.7h3.168v14.405h-3.168v-5.781h-5.846v5.781h-3.169V11.792M142.828 11.792h10.866v2.819h-7.718v2.922h6.791v2.82h-6.791v3.025h7.821v2.819h-10.969V11.792M162.801 11.689h2.922l6.173 14.508h-3.312l-1.318-3.232h-6.091l-1.318 3.232h-3.23l6.174-14.508Zm3.333 8.478-1.913-4.672-1.915 4.672h3.828ZM174.726 11.792h3.17v11.524h7.183v2.881h-10.353V11.792M189.622 14.714h-4.382v-2.922h11.934v2.922h-4.383v11.483h-3.169V14.714M200.339 11.792h3.169v5.7h5.845v-5.7h3.169v14.405h-3.169v-5.781h-5.845v5.781h-3.169V11.792"/></g></svg>
