<svg version="1.1" id="Layer_1" xmlns:x="ns_extend;" xmlns:i="ns_ai;" xmlns:graph="ns_graphs;" xmlns="http://www.w3.org/2000/svg" xmlns:xlink="http://www.w3.org/1999/xlink" x="0px" y="0px" viewBox="0 0 264.9 50" style="enable-background:new 0 0 264.9 50;" xml:space="preserve">
 <style type="text/css">
  .st0{fill:#FFFFFF;}
 </style>
 <metadata>
  <sfw xmlns="ns_sfw;">
   <slices>
   </slices>
   <sliceSourceBounds bottomLeftOrigin="true" height="50" width="264.9" x="-124.7" y="-215.2">
   </sliceSourceBounds>
  </sfw>
 </metadata>
 <g>
  <path class="st0" d="M73.7,12.8h7.5c6.1,0,11.5,1.7,11.5,8c0,5.8-4.2,8.1-11.7,8.1h-1.7v9h-5.5V12.8z M81.2,24.5
		c4.5,0,5.9-1,5.9-3.4c0-2.8-1.9-3.5-6.1-3.5h-1.9v6.9L81.2,24.5L81.2,24.5z">
  </path>
  <path class="st0" d="M95.7,11.4h5.3v11l0.1,0c1.2-1,3.1-2,5.2-2c1.8,0,3.4,0.6,4.5,1.7c1,1.1,1.5,2.6,1.5,5.1V38H107v-9.8
		c0-1.3-0.2-1.9-0.6-2.4c-0.5-0.5-1.1-0.7-1.8-0.7c-1.4,0-2.6,0.7-3.6,1.4V38h-5.3V11.4z">
  </path>
  <path class="st0" d="M125,20.5c5.4,0,9.5,3.9,9.5,8.9c0,5-4.1,8.9-9.5,8.9c-5.4,0-9.5-3.9-9.5-8.9C115.5,24.4,119.5,20.5,125,20.5z
		 M125,33.8c2.4,0,4.2-1.9,4.2-4.4c0-2.4-1.8-4.4-4.2-4.4c-2.4,0-4.2,1.9-4.2,4.4C120.7,31.9,122.6,33.8,125,33.8z">
  </path>
  <path class="st0" d="M139.1,31.6v-6.3h-2.8v-4.4h2.8v-4.5l5.3-0.9v5.4h4.5v4.4h-4.5V31c0,1.7,0.4,2.9,2,2.9c0.9,0,1.8-0.3,2.5-0.7
		v4.2c-0.8,0.5-2.4,0.9-3.9,0.9c-1.7,0-3.4-0.6-4.4-1.7C139.6,35.7,139.1,34.3,139.1,31.6z">
  </path>
  <path class="st0" d="M160.3,20.5c5.4,0,9.5,3.9,9.5,8.9c0,5-4.1,8.9-9.5,8.9c-5.4,0-9.5-3.9-9.5-8.9
		C150.7,24.4,154.8,20.5,160.3,20.5z M160.3,33.8c2.4,0,4.2-1.9,4.2-4.4c0-2.4-1.8-4.4-4.2-4.4c-2.4,0-4.2,1.9-4.2,4.4
		C156,31.9,157.9,33.8,160.3,33.8z">
  </path>
  <path class="st0" d="M173.2,12.8h7.9c5.7,0,10.8,1.6,10.8,7.6c0,3.2-1.8,5.9-5.1,7l7.1,10.6h-6.3l-6.3-10h-2.5v10h-5.5L173.2,12.8
		L173.2,12.8z M181.4,23.9c3.1,0,4.9-0.8,4.9-3.1c0-2.2-1.5-3.1-5.6-3.1h-2.1v6.3H181.4z">
  </path>
  <path class="st0" d="M203.5,20.5c5.4,0,9.5,3.9,9.5,8.9c0,5-4.1,8.9-9.5,8.9c-5.4,0-9.5-3.9-9.5-8.9
		C194,24.4,198.1,20.5,203.5,20.5z M203.5,33.8c2.4,0,4.2-1.9,4.2-4.4c0-2.4-1.8-4.4-4.2-4.4c-2.4,0-4.2,1.9-4.2,4.4
		C199.3,31.9,201.1,33.8,203.5,33.8z">
  </path>
  <path class="st0" d="M224.8,20.5c5.4,0,9.5,3.9,9.5,8.9c0,5-4.1,8.9-9.5,8.9c-5.4,0-9.5-3.9-9.5-8.9
		C215.3,24.4,219.3,20.5,224.8,20.5z M224.8,33.8c2.4,0,4.2-1.9,4.2-4.4c0-2.4-1.8-4.4-4.2-4.4c-2.4,0-4.2,1.9-4.2,4.4
		C220.5,31.9,222.4,33.8,224.8,33.8z">
  </path>
  <path class="st0" d="M259.6,28.1c0-1.3-0.2-1.9-0.6-2.3c-0.5-0.5-1.1-0.7-1.8-0.7c-1.2,0-2.5,0.6-3.4,1.4c0,0.2,0,0.5,0,0.8V38
		h-5.3v-9.9c0-1.1-0.2-1.8-0.6-2.3c-0.5-0.5-1.1-0.7-1.8-0.7c-1.2,0-2.5,0.7-3.3,1.4V38h-5.3V20.9h5.2v1.5l0.1,0
		c1.3-1.1,3.1-1.9,5.1-1.9c1.8,0,4,0.7,5,2.4c1.8-1.6,3.9-2.4,6-2.4c1.9,0,3.4,0.7,4.4,1.7c1.1,1.1,1.6,2.6,1.6,5V38h-5.3V28.1z">
  </path>
  <path class="st0" d="M41.1,50c-1.6,0-3.2-0.6-4.4-1.9L1.6,10.2C-0.7,7.7-0.5,4,1.9,1.8c2.4-2.2,6.2-2.1,8.4,0.3L45.4,40
		c2.2,2.4,2.1,6.2-0.3,8.4C44,49.5,42.5,50,41.1,50z">
  </path>
  <path class="st0" d="M6,49.8c-3.3,0-6-2.7-6-6V28.1c0-3.3,2.7-6,6-6h24.3c2.8,0,5.1-2.3,5.1-5.1c0-2.8-2.3-5.1-5.1-5.1H6
		c-3.3,0-6-2.7-6-6s2.7-6,6-6h24.3c9.4,0,17,7.6,17,17c0,9.4-7.6,17-17,17H12v9.9C12,47.2,9.3,49.8,6,49.8z">
  </path>
 </g>
</svg>